<svg xmlns="http://www.w3.org/2000/svg" xmlns:xlink="http://www.w3.org/1999/xlink" fill="none" version="1.1" width="22.5" height="20" viewBox="0 0 22.5 20"><defs><clipPath id="master_svg0_90_5544/70_3985"><rect x="0" y="0" width="22.5" height="20" rx="0"/></clipPath></defs><g clip-path="url(#master_svg0_90_5544/70_3985)"><g transform="matrix(1,0,0,-1,0,38.12497329711914)"><g><path d="M11.23145624254942,34.68748664855957Q9.33388624254942,34.64838664855957,7.784836242549419,33.90628664855957Q6.235776242549419,33.20308664855957,5.03526624254942,32.03128664855957Q3.9121962425494194,30.976586648559568,3.1376762425494196,29.84368664855957Q2.4018762425494193,28.71092664855957,1.9758862425494195,27.81248664855957Q2.4018762425494193,26.91404664855957,3.1376762425494196,25.78123664855957Q3.9121962425494194,24.64842664855957,5.03526624254942,23.59373664855957Q6.235776242549419,22.421866648559572,7.784836242549419,21.71873664855957Q9.33388624254942,20.97654664855957,11.23145624254942,20.93748664855957Q13.129056242549419,20.97654664855957,14.67815624254942,21.71873664855957Q16.22715624254942,22.421866648559572,17.427656242549418,23.59373664855957Q18.55075624254942,24.64842664855957,19.32525624254942,25.78123664855957Q20.06105624254942,26.91404664855957,20.487056242549418,27.81248664855957Q20.06105624254942,28.71092664855957,19.32525624254942,29.84368664855957Q18.55075624254942,30.976586648559568,17.427656242549418,32.03128664855957Q16.22715624254942,33.20308664855957,14.67815624254942,33.90628664855957Q13.129056242549419,34.64838664855957,11.23145624254942,34.68748664855957ZM3.7572962425494194,33.39838664855957Q5.15144624254942,34.72658664855957,7.01030624254942,35.62498664855957Q8.869166242549419,36.523386648559566,11.23145624254942,36.56248664855957Q13.59375624254942,36.523386648559566,15.45265624254942,35.62498664855957Q17.31155624254942,34.72658664855957,18.70565624254942,33.39838664855957Q20.06105624254942,32.10938664855957,20.95175624254942,30.74218664855957Q21.84245624254942,29.37498664855957,22.307256242549418,28.28123664855957Q22.500856242549418,27.81248664855957,22.307256242549418,27.34373664855957Q21.84245624254942,26.24998664855957,20.95175624254942,24.88279664855957Q20.06105624254942,23.51560664855957,18.70565624254942,22.22654664855957Q17.31155624254942,20.89842664855957,15.45265624254942,19.99998664855957Q13.59375624254942,19.10154914855957,11.23145624254942,19.06248664855957Q8.869166242549419,19.10154914855957,7.01030624254942,19.99998664855957Q5.15144624254942,20.89842664855957,3.7572962425494194,22.22654664855957Q2.4018762425494193,23.51560664855957,1.5111662425494194,24.88279664855957Q0.6204622425494194,26.24998664855957,0.1944720425494194,27.34373664855957Q0.0008404425494194095,27.81248664855957,0.1944720425494194,28.28123664855957Q0.6204622425494194,29.37498664855957,1.5111662425494194,30.74218664855957Q2.4018762425494193,32.10938664855957,3.7572962425494194,33.39838664855957ZM11.23145624254942,24.68748664855957Q12.54815624254942,24.72654664855957,13.43885624254942,25.58592664855957Q14.290856242549419,26.484366648559572,14.329556242549419,27.81248664855957Q14.290856242549419,29.14058664855957,13.43885624254942,30.039086648559568Q12.54815624254942,30.898386648559573,11.23145624254942,30.93748664855957Q11.19275624254942,30.93748664855957,11.19275624254942,30.93748664855957L11.15405624254942,30.93748664855957Q11.23145624254942,30.62498664855957,11.23145624254942,30.31248664855957Q11.19275624254942,29.25778664855957,10.495656242549419,28.55467664855957Q9.79860624254942,27.85154664855957,8.75299624254942,27.81248664855957Q8.44317624254942,27.81248664855957,8.13336624254942,27.89060664855957Q8.13336624254942,27.85154664855957,8.13336624254942,27.85154664855957L8.13336624254942,27.81248664855957Q8.172096242549419,26.484366648559572,9.02407624254942,25.58592664855957Q9.91478624254942,24.72654664855957,11.23145624254942,24.68748664855957ZM11.23145624254942,32.81248664855957Q12.58685624254942,32.81248664855957,13.709956242549419,32.14838664855957Q14.83305624254942,31.48438664855957,15.530056242549419,30.31248664855957Q16.18845624254942,29.14058664855957,16.18845624254942,27.81248664855957Q16.18845624254942,26.484366648559572,15.530056242549419,25.31248664855957Q14.83305624254942,24.14060664855957,13.709956242549419,23.47654664855957Q12.58685624254942,22.81248664855957,11.23145624254942,22.81248664855957Q9.876056242549419,22.81248664855957,8.75299624254942,23.47654664855957Q7.629926242549419,24.14060664855957,6.93285624254942,25.31248664855957Q6.274506242549419,26.484366648559572,6.274506242549419,27.81248664855957Q6.274506242549419,29.14058664855957,6.93285624254942,30.31248664855957Q7.629926242549419,31.48438664855957,8.75299624254942,32.14838664855957Q9.876056242549419,32.81248664855957,11.23145624254942,32.81248664855957Z" fill="#9CA3AF" fill-opacity="1" style="mix-blend-mode:passthrough"/></g></g></g></svg>