<svg xmlns="http://www.w3.org/2000/svg" xmlns:xlink="http://www.w3.org/1999/xlink" fill="none" version="1.1" width="18" height="18" viewBox="0 0 18 18"><g transform="matrix(1,0,0,-1,0,36)"><path d="M0,27Q0.0351562,29.460900000000002,1.19531,31.5Q2.39062,33.5391,4.5,34.8047Q6.64453,36,9,36Q11.3555,36,13.5,34.8047Q15.6094,33.5391,16.8047,31.5Q17.9648,29.460900000000002,18,27Q17.9648,24.53906,16.8047,22.5Q15.6094,20.46094,13.5,19.19531Q11.3555,18,9,18Q6.64453,18,4.5,19.19531Q2.39062,20.46094,1.19531,22.5Q0.0351562,24.53906,0,27ZM6.60938,30.832Q6.1875,30.585900000000002,6.1875,30.0938L6.1875,23.90625Q6.1875,23.41406,6.60938,23.16797Q7.06641,22.95703,7.48828,23.20312L12.5508,26.29688Q12.9375,26.54297,12.9375,27Q12.9375,27.45703,12.5508,27.73828L7.48828,30.832Q7.06641,31.043,6.60938,30.832Z" fill="#FFFFFF" fill-opacity="1" style="mix-blend-mode:passthrough"/></g></svg>