<svg xmlns="http://www.w3.org/2000/svg" xmlns:xlink="http://www.w3.org/1999/xlink" fill="none" version="1.1" width="22.5" height="20" viewBox="0 0 22.5 20"><g transform="matrix(1,0,0,-1,0,40)"><path d="M15.625,40L6.875,40L15.625,40L6.875,40Q6.09375,39.960899999999995,5.54688,39.4531Q5.03906,38.9062,5.03906,38.125Q5.03906,37.8125,5.07812,37.5L0.9375,37.5Q0.078125,37.4219,0,36.5625Q0.0390625,33.8672,0.859375,31.914099999999998Q1.71875,30,3.08594,28.71094Q4.375,27.46094,5.82031,26.75781Q7.26562,26.05469,8.47656,25.74219Q9.14062,25.54688,9.57031,25.07812Q10,24.57031,10,23.98438Q10,23.35938,9.57031,22.92969Q9.14062,22.5,8.51562,22.5L7.5,22.5Q6.95312,22.5,6.60156,22.14844Q6.25,21.79688,6.25,21.25Q6.25,20.703125,6.60156,20.351562Q6.95312,20,7.5,20L15,20Q15.5469,20,15.8984,20.351562Q16.25,20.703125,16.25,21.25Q16.25,21.79688,15.8984,22.14844Q15.5469,22.5,15,22.5L13.9844,22.5Q13.3594,22.5,12.9297,22.92969Q12.5,23.35938,12.5,23.98438Q12.5,24.57031,12.9297,25.07812Q13.3594,25.54688,14.0234,25.74219Q15.2344,26.05469,16.6797,26.75781Q18.125,27.46094,19.4531,28.71094Q20.7812,30,21.6406,31.914099999999998Q22.4609,33.8672,22.5,36.5625Q22.4219,37.4219,21.5625,37.5L17.4219,37.5Q17.4609,37.8125,17.4609,38.125Q17.4609,38.9062,16.9531,39.4531Q16.4062,39.960899999999995,15.625,40ZM1.91406,35.625L5.19531,35.625L1.91406,35.625L5.19531,35.625Q5.46875,33.0078,6.01562,31.1719Q6.5625,29.33594,7.22656,28.16406Q5.74219,28.78906,4.375,30.0781Q3.4375,30.976599999999998,2.73438,32.3438Q2.07031,33.7109,1.91406,35.625ZM18.125,30.0781Q16.7578,28.78906,15.2734,28.16406Q15.9375,29.33594,16.4844,31.1719Q17.0312,33.0078,17.3047,35.625L20.5859,35.625Q20.4297,33.7109,19.7656,32.3438Q19.1016,30.976599999999998,18.125,30.0781Z" fill="#4B5563" fill-opacity="1" style="mix-blend-mode:passthrough"/></g></svg>